<svg id="Слой_1" data-name="Слой 1" xmlns="http://www.w3.org/2000/svg" viewBox="0 0 250.62 42"><defs><style>.cls-1{fill:#fff;}</style></defs><title>logo frank</title><path class="cls-1" d="M238.31,18.1h5.28c0,2.87-.51,5.62,1,5.62,1.24,0,1.57-4.27-.34-6.24-3.43-3.6-5.9-3-6.13-9.78-0.28-10.73,12.2-9.16,12.2-1.91V9h-5.11c0.39-7.19-3-4.16-1.46,0,0.79,2,7,4.16,7,9.27,0,4.66.79,9.89-6.58,9.89C237.69,28.16,238.42,22,238.31,18.1Zm-70.7-9.55,0.67,9.61h-1.35Zm0,14.56h1.24l0.51,5h5.45L171.49,0.17h-7.76L160.42,28.1h5.4l0.56-5h1.24ZM145.69,17L144.23,0.17h-6.07l3.37,28h8.37l3.37-28h-6.07Zm54.06,11.18c14.84,0,13.21.62,13.21-21.13,0-8.21-6.35-6.91-13.21-6.91v28ZM205.26,5c1.35,0,1.91-.11,1.91,1.91V21.47c0,2-.56,1.91-1.91,1.91V5ZM188.4,0.17h-5.84v28h9.33V22.65H188.4V0.17Zm41.76,0h-9.61v28.1h5.79V28.21h3.82V22.54h-3.82V16.35h3.6V11.13h-3.6V5.85h3.82V0.17Z" transform="translate(-0.19 0)"/><path class="cls-1" d="M6,28.16H0.19v-28H10V5.68H6v5.45h3.6v5.28H6V28.16Zm29.11,0c0.06-7,1.18-12.81-3-14.56,3.32-.84,3-2.3,3-7.42,0-7.19-5.79-6-13.09-6V28.16h6V15.74c2.75,0,1.69,7,1.69,12.42h5.45Zm-6.63-23c1.35-.06,2.36,6.18-0.51,6.18V5.11h0.51ZM54.31,8.6L55,18.21h-1.4Zm0,14.56h1.18l0.56,5H61.5l-3.32-28H50.38l-3.26,28h5.4l0.56-5h1.24Zm24,5V16.41l3.15,11.75h4.83v-28H81.46V12.48L78.31,0.17H73.42v28h4.89Zm34.45,0c-4.38-18.55-4.55-11.91-.28-28h-5.23L104.5,10.45V0.23H98.65V28.16h5.84V16.07l2.25,12.08h6Z" transform="translate(-0.19 0)"/><path class="cls-1" d="M4.46,39.25c0,1.8-.84,2.64-2.59,2.64H0.19V36.66H1.88A2.29,2.29,0,0,1,4.46,39.25Zm-1,0c0-.22-0.06-0.45-0.06-0.67A1.76,1.76,0,0,0,3.17,38a2,2,0,0,0-.51-0.34,3.32,3.32,0,0,0-.79-0.11H1.15V41H1.88a1.79,1.79,0,0,0,.79-0.11,0.82,0.82,0,0,0,.51-0.34A0.84,0.84,0,0,0,3.39,40,3.32,3.32,0,0,0,3.51,39.25Zm9.55,0.34L12.44,38l-0.62,1.63h1.24ZM15,41.89H13.9l-0.56-1.46h-1.8L11,41.89H10l2-5.23h0.9Zm9.78,0h-0.9L21.6,38.4v3.48H20.7V36.66h0.9l2.25,3.54V36.66h0.9v5.23Zm9.67-3.43a0.54,0.54,0,0,0-.11-0.39,1.18,1.18,0,0,0-.22-0.34l-0.34-.17a1.32,1.32,0,0,0-.45-0.11,1,1,0,0,0-.56.17,0.7,0.7,0,0,0-.45.34,1.07,1.07,0,0,0-.28.56,2.81,2.81,0,0,0,0,1.57,1.07,1.07,0,0,0,.28.56,0.7,0.7,0,0,0,.45.34,1,1,0,0,0,.56.17A1.32,1.32,0,0,0,33.74,41a1.18,1.18,0,0,0,.34-0.22,0.52,0.52,0,0,0,.22-0.34A1.06,1.06,0,0,0,34.42,40h1a3,3,0,0,1-.22.84,2.5,2.5,0,0,1-.45.62,1.94,1.94,0,0,1-.67.39,3.32,3.32,0,0,1-.79.11,3.18,3.18,0,0,1-1-.17,3.61,3.61,0,0,1-.73-0.56,2,2,0,0,1-.45-0.84,3.83,3.83,0,0,1,0-2.25,2.11,2.11,0,0,1,1.24-1.4,2.63,2.63,0,0,1,1-.17,3.32,3.32,0,0,1,.79.11,2.32,2.32,0,0,1,.62.39,1.76,1.76,0,0,1,.51.62,2.78,2.78,0,0,1,.22.73h-1Zm11,3.43H41.55V36.66h3.77v0.9H42.51v1.18h2.64v0.9H42.51V41h2.92v0.9ZM62.18,42a2.42,2.42,0,0,1-1-.17,1.35,1.35,0,0,1-.67-0.39,1.59,1.59,0,0,1-.45-0.62C60,40.6,60,40.31,59.93,40h1a1.06,1.06,0,0,0,.11.45,0.89,0.89,0,0,0,.28.34,0.91,0.91,0,0,0,.39.22,1.83,1.83,0,0,0,.9,0,0.8,0.8,0,0,0,.34-0.11c0.06-.06.11-0.17,0.17-0.22a0.59,0.59,0,0,0,.11-0.28,0.43,0.43,0,0,0-.11-0.28,0.85,0.85,0,0,0-.22-0.22,2.74,2.74,0,0,0-.39-0.17,4.15,4.15,0,0,1-.67-0.11c-0.28-.06-0.51-0.17-0.73-0.22a2,2,0,0,1-.51-0.34,1.05,1.05,0,0,1-.34-0.39,1.73,1.73,0,0,1-.06-0.56,1.11,1.11,0,0,1,.11-0.62,1,1,0,0,1,.39-0.45,1.17,1.17,0,0,1,.56-0.34,2.81,2.81,0,0,1,1.57,0,6.13,6.13,0,0,1,.62.34,2,2,0,0,1,.39.56,1.8,1.8,0,0,1,.17.79h-0.9A0.93,0.93,0,0,0,62,37.5a1.08,1.08,0,0,0-.67.17,0.5,0.5,0,0,0-.28.45c0,0.06.06,0.11,0.06,0.17l0.17,0.17a2.34,2.34,0,0,0,.34.11,0.87,0.87,0,0,0,.45.11c0.11,0.06.28,0.06,0.45,0.11L63,39a3.87,3.87,0,0,1,.45.17c0.11,0.11.22,0.17,0.34,0.28a1.71,1.71,0,0,1,.28.39,1.73,1.73,0,0,1,.06.56A2.82,2.82,0,0,1,64,41a1.82,1.82,0,0,1-.45.51,4.94,4.94,0,0,1-.56.34A3.79,3.79,0,0,1,62.18,42ZM74,37.56H72.41v4.33h-1V37.56H69.88v-0.9H74v0.9ZM82,42a3.4,3.4,0,0,1-.84-0.11,1.76,1.76,0,0,1-.56-0.28,0.76,0.76,0,0,1-.34-0.39A1.13,1.13,0,0,1,80,40.76a1.73,1.73,0,0,1-.06-0.56c0-.17-0.06-0.34-0.06-0.51v-3h1v3a2.1,2.1,0,0,0,.11.67,0.84,0.84,0,0,0,.17.45,1.18,1.18,0,0,0,.34.22,1.56,1.56,0,0,0,.51.06A1.1,1.1,0,0,0,82.41,41a0.52,0.52,0,0,0,.34-0.22A0.85,0.85,0,0,0,83,40.37,2.32,2.32,0,0,0,83,39.7v-3h1v3a2.63,2.63,0,0,1-.11,1,2.2,2.2,0,0,1-.28.73,1.59,1.59,0,0,1-.62.45A2.72,2.72,0,0,1,82,42Zm12.64-2.75c0,1.8-.84,2.64-2.59,2.64H90.34V36.66H92A2.29,2.29,0,0,1,94.61,39.25Zm-1,0a2.74,2.74,0,0,0-.06-0.67A1.76,1.76,0,0,0,93.31,38a2,2,0,0,0-.51-0.34A2.93,2.93,0,0,0,92,37.56H91.29V41H92a1.67,1.67,0,0,0,.79-0.11,0.82,0.82,0,0,0,.51-0.34A1.47,1.47,0,0,0,93.59,40,3.46,3.46,0,0,0,93.65,39.25Zm8.15,2.64h-1V36.66h1v5.23Zm8.49-5.28a2.72,2.72,0,0,1,1,.17,4,4,0,0,1,.79.56,2.12,2.12,0,0,1,.51.84,3.62,3.62,0,0,1,.17,1.12,3,3,0,0,1-.17,1.07,2.85,2.85,0,0,1-.51.9,2.36,2.36,0,0,1-.79.51,1.92,1.92,0,0,1-1,.22,1.85,1.85,0,0,1-1-.22,2.36,2.36,0,0,1-.79-0.51,2.85,2.85,0,0,1-.51-0.9,3,3,0,0,1-.17-1.07,3.62,3.62,0,0,1,.17-1.12,2.12,2.12,0,0,1,.51-0.84,4,4,0,0,1,.79-0.56A2.63,2.63,0,0,1,110.29,36.6Zm0,4.55A1.13,1.13,0,0,0,110.9,41a0.87,0.87,0,0,0,.45-0.34,1.17,1.17,0,0,0,.34-0.56,2.81,2.81,0,0,0,0-1.57,1.87,1.87,0,0,0-.34-0.56,0.87,0.87,0,0,0-.45-0.34,1.08,1.08,0,0,0-.56-0.17,1.13,1.13,0,0,0-.62.17,0.87,0.87,0,0,0-.45.34,1.17,1.17,0,0,0-.34.56,2.81,2.81,0,0,0,0,1.57,1.17,1.17,0,0,0,.34.56,0.87,0.87,0,0,0,.45.34A1.08,1.08,0,0,0,110.29,41.16Z" transform="translate(-0.19 0)"/></svg>